<mxfile host="Electron" agent="Mozilla/5.0 (Windows NT 10.0; Win64; x64) AppleWebKit/537.36 (KHTML, like Gecko) draw.io/28.0.6 Chrome/138.0.7204.100 Electron/37.2.3 Safari/537.36" version="28.0.6">
  <diagram name="Page-1" id="gXIq502xV3y591orw5Cd">
    <mxGraphModel dx="1042" dy="626" grid="1" gridSize="10" guides="1" tooltips="1" connect="1" arrows="1" fold="1" page="1" pageScale="1" pageWidth="827" pageHeight="1169" math="0" shadow="0">
      <root>
        <mxCell id="0" />
        <mxCell id="1" parent="0" />
        <mxCell id="A1xcLRBUTXrgSNpEkEmB-1" value="" style="rounded=0;whiteSpace=wrap;html=1;fillColor=none;dashed=1;strokeColor=light-dark(#000000,#B04747);" parent="1" vertex="1">
          <mxGeometry x="200" y="120" width="160" height="530" as="geometry" />
        </mxCell>
        <mxCell id="A1xcLRBUTXrgSNpEkEmB-2" value="&lt;font style=&quot;font-size: 18px;&quot;&gt;Sources&lt;/font&gt;" style="rounded=0;whiteSpace=wrap;html=1;strokeColor=none;fillColor=none;fontStyle=1" parent="1" vertex="1">
          <mxGeometry x="220" y="80" width="120" height="60" as="geometry" />
        </mxCell>
        <mxCell id="A1xcLRBUTXrgSNpEkEmB-3" value="" style="rounded=0;whiteSpace=wrap;html=1;fillColor=none;dashed=1;strokeColor=light-dark(#000000,#B04747);" parent="1" vertex="1">
          <mxGeometry x="400" y="120" width="560" height="530" as="geometry" />
        </mxCell>
        <mxCell id="A1xcLRBUTXrgSNpEkEmB-4" value="&lt;font style=&quot;font-size: 18px;&quot;&gt;ess database&lt;/font&gt;" style="rounded=0;whiteSpace=wrap;html=1;strokeColor=none;fillColor=none;fontStyle=1" parent="1" vertex="1">
          <mxGeometry x="615" y="80" width="145" height="60" as="geometry" />
        </mxCell>
        <mxCell id="A1xcLRBUTXrgSNpEkEmB-5" value="" style="rounded=0;whiteSpace=wrap;html=1;fillColor=none;dashed=1;strokeColor=light-dark(#a3a3a3, #9a3c3c);" parent="1" vertex="1">
          <mxGeometry x="1000" y="120" width="170" height="530" as="geometry" />
        </mxCell>
        <mxCell id="A1xcLRBUTXrgSNpEkEmB-6" value="&lt;font style=&quot;font-size: 18px;&quot;&gt;Consume&lt;/font&gt;" style="rounded=0;whiteSpace=wrap;html=1;strokeColor=none;fillColor=none;fontStyle=1" parent="1" vertex="1">
          <mxGeometry x="1025" y="80" width="120" height="60" as="geometry" />
        </mxCell>
        <mxCell id="A1xcLRBUTXrgSNpEkEmB-7" value="Bronze Layer" style="rounded=0;whiteSpace=wrap;html=1;fillColor=#fad7ac;strokeColor=#b46504;fontSize=16;" parent="1" vertex="1">
          <mxGeometry x="430" y="150" width="140" height="20" as="geometry" />
        </mxCell>
        <mxCell id="A1xcLRBUTXrgSNpEkEmB-8" value="" style="rounded=0;whiteSpace=wrap;html=1;fillColor=none;strokeColor=#b46504;fontSize=16;" parent="1" vertex="1">
          <mxGeometry x="420" y="180" width="160" height="460" as="geometry" />
        </mxCell>
        <mxCell id="A1xcLRBUTXrgSNpEkEmB-9" value="Silver Layer" style="rounded=0;whiteSpace=wrap;html=1;fillColor=#f5f5f5;strokeColor=#666666;fontSize=16;fontColor=#333333;" parent="1" vertex="1">
          <mxGeometry x="617.5" y="150" width="140" height="20" as="geometry" />
        </mxCell>
        <mxCell id="A1xcLRBUTXrgSNpEkEmB-10" value="" style="rounded=0;whiteSpace=wrap;html=1;fillColor=none;strokeColor=#666666;fontSize=16;fontColor=#333333;" parent="1" vertex="1">
          <mxGeometry x="600" y="180" width="170" height="460" as="geometry" />
        </mxCell>
        <mxCell id="A1xcLRBUTXrgSNpEkEmB-11" value="Gold Layer" style="rounded=0;whiteSpace=wrap;html=1;fillColor=#fff2cc;strokeColor=#d6b656;fontSize=16;gradientColor=#ffd966;" parent="1" vertex="1">
          <mxGeometry x="795" y="150" width="140" height="20" as="geometry" />
        </mxCell>
        <mxCell id="A1xcLRBUTXrgSNpEkEmB-12" value="" style="rounded=0;whiteSpace=wrap;html=1;fillColor=none;strokeColor=light-dark(#DBBA58,#F2C72C);fontSize=16;" parent="1" vertex="1">
          <mxGeometry x="790" y="180" width="160" height="460" as="geometry" />
        </mxCell>
        <mxCell id="A1xcLRBUTXrgSNpEkEmB-13" value="" style="image;aspect=fixed;html=1;points=[];align=center;fontSize=12;image=img/lib/azure2/general/Folder_Blank.svg;" parent="1" vertex="1">
          <mxGeometry x="250" y="199.68" width="55.39" height="44.96" as="geometry" />
        </mxCell>
        <mxCell id="A1xcLRBUTXrgSNpEkEmB-14" value="" style="image;aspect=fixed;html=1;points=[];align=center;fontSize=12;image=img/lib/azure2/general/File.svg;" parent="1" vertex="1">
          <mxGeometry x="280.39" y="218.64" width="25.45" height="31.36" as="geometry" />
        </mxCell>
        <mxCell id="A1xcLRBUTXrgSNpEkEmB-15" value="SAP" style="rounded=0;whiteSpace=wrap;html=1;fillColor=none;strokeColor=none;" parent="1" vertex="1">
          <mxGeometry x="217.69" y="230" width="120" height="60" as="geometry" />
        </mxCell>
        <mxCell id="A1xcLRBUTXrgSNpEkEmB-20" value="" style="image;aspect=fixed;html=1;points=[];align=center;fontSize=12;image=img/lib/azure2/general/Folder_Blank.svg;" parent="1" vertex="1">
          <mxGeometry x="252.31" y="284.84000000000003" width="55.39" height="44.96" as="geometry" />
        </mxCell>
        <mxCell id="A1xcLRBUTXrgSNpEkEmB-21" value="" style="image;aspect=fixed;html=1;points=[];align=center;fontSize=12;image=img/lib/azure2/general/File.svg;" parent="1" vertex="1">
          <mxGeometry x="282.7" y="303.79999999999995" width="25.45" height="31.36" as="geometry" />
        </mxCell>
        <mxCell id="A1xcLRBUTXrgSNpEkEmB-22" value="WFM*" style="rounded=0;whiteSpace=wrap;html=1;fillColor=none;strokeColor=none;" parent="1" vertex="1">
          <mxGeometry x="220" y="315.15999999999997" width="120" height="60" as="geometry" />
        </mxCell>
        <mxCell id="A1xcLRBUTXrgSNpEkEmB-25" value="" style="endArrow=none;html=1;rounded=1;curved=0;" parent="1" edge="1">
          <mxGeometry width="50" height="50" relative="1" as="geometry">
            <mxPoint x="217.69" y="380" as="sourcePoint" />
            <mxPoint x="337.69" y="380" as="targetPoint" />
          </mxGeometry>
        </mxCell>
        <mxCell id="A1xcLRBUTXrgSNpEkEmB-26" value="&lt;b&gt;Object Type: &lt;/b&gt;.csv files&lt;div&gt;&lt;b&gt;&lt;br&gt;&lt;/b&gt;&lt;/div&gt;&lt;div&gt;&lt;b&gt;Interface: &lt;/b&gt;files in folder&lt;/div&gt;" style="text;html=1;align=center;verticalAlign=middle;whiteSpace=wrap;rounded=0;" parent="1" vertex="1">
          <mxGeometry x="200" y="400" width="160" height="50" as="geometry" />
        </mxCell>
        <mxCell id="A1xcLRBUTXrgSNpEkEmB-27" value="" style="html=1;verticalLabelPosition=bottom;align=center;labelBackgroundColor=#ffffff;verticalAlign=top;strokeWidth=2;strokeColor=#d79b00;shadow=0;dashed=0;shape=mxgraph.ios7.icons.data;fillColor=#ffe6cc;" parent="1" vertex="1">
          <mxGeometry x="470" y="244.64" width="60" height="59" as="geometry" />
        </mxCell>
        <mxCell id="A1xcLRBUTXrgSNpEkEmB-28" value="" style="html=1;verticalLabelPosition=bottom;align=center;labelBackgroundColor=#ffffff;verticalAlign=top;strokeWidth=2;strokeColor=#666666;shadow=0;dashed=0;shape=mxgraph.ios7.icons.data;fillColor=#f5f5f5;fontColor=#333333;" parent="1" vertex="1">
          <mxGeometry x="655" y="244.64" width="60" height="59" as="geometry" />
        </mxCell>
        <mxCell id="A1xcLRBUTXrgSNpEkEmB-29" value="" style="html=1;verticalLabelPosition=bottom;align=center;labelBackgroundColor=#ffffff;verticalAlign=top;strokeWidth=2;strokeColor=#d6b656;shadow=0;dashed=0;shape=mxgraph.ios7.icons.data;fillColor=#fff2cc;gradientColor=#ffd966;" parent="1" vertex="1">
          <mxGeometry x="841" y="244.64" width="60" height="59" as="geometry" />
        </mxCell>
        <mxCell id="A1xcLRBUTXrgSNpEkEmB-30" value="" style="shape=flexArrow;endArrow=classic;html=1;rounded=0;entryX=0.036;entryY=0.4;entryDx=0;entryDy=0;entryPerimeter=0;fillColor=#dae8fc;strokeColor=#6c8ebf;" parent="1" edge="1">
          <mxGeometry width="50" height="50" relative="1" as="geometry">
            <mxPoint x="350" y="280" as="sourcePoint" />
            <mxPoint x="413.1600000000001" y="280" as="targetPoint" />
          </mxGeometry>
        </mxCell>
        <mxCell id="A1xcLRBUTXrgSNpEkEmB-31" value="" style="shape=flexArrow;endArrow=classic;html=1;rounded=0;entryX=0.036;entryY=0.4;entryDx=0;entryDy=0;entryPerimeter=0;fillColor=#dae8fc;strokeColor=#6c8ebf;" parent="1" edge="1">
          <mxGeometry width="50" height="50" relative="1" as="geometry">
            <mxPoint x="560" y="280" as="sourcePoint" />
            <mxPoint x="623.1600000000001" y="280" as="targetPoint" />
          </mxGeometry>
        </mxCell>
        <mxCell id="A1xcLRBUTXrgSNpEkEmB-32" value="" style="shape=flexArrow;endArrow=classic;html=1;rounded=0;entryX=0.036;entryY=0.4;entryDx=0;entryDy=0;entryPerimeter=0;fillColor=#dae8fc;strokeColor=#6c8ebf;" parent="1" edge="1">
          <mxGeometry width="50" height="50" relative="1" as="geometry">
            <mxPoint x="750" y="280" as="sourcePoint" />
            <mxPoint x="813.1600000000001" y="280" as="targetPoint" />
          </mxGeometry>
        </mxCell>
        <mxCell id="A1xcLRBUTXrgSNpEkEmB-33" value="Raw Data" style="rounded=0;whiteSpace=wrap;html=1;fillColor=none;strokeColor=none;" parent="1" vertex="1">
          <mxGeometry x="440" y="290" width="120" height="60" as="geometry" />
        </mxCell>
        <mxCell id="A1xcLRBUTXrgSNpEkEmB-34" value="Cleaned, Standardised Data" style="rounded=0;whiteSpace=wrap;html=1;fillColor=none;strokeColor=none;" parent="1" vertex="1">
          <mxGeometry x="627.5" y="290" width="120" height="60" as="geometry" />
        </mxCell>
        <mxCell id="A1xcLRBUTXrgSNpEkEmB-35" value="Business-Ready Data" style="rounded=0;whiteSpace=wrap;html=1;fillColor=none;strokeColor=none;" parent="1" vertex="1">
          <mxGeometry x="811" y="290" width="120" height="60" as="geometry" />
        </mxCell>
        <mxCell id="A1xcLRBUTXrgSNpEkEmB-36" value="" style="endArrow=none;html=1;rounded=1;curved=0;fillColor=#ffe6cc;strokeColor=#d79b00;" parent="1" edge="1">
          <mxGeometry width="50" height="50" relative="1" as="geometry">
            <mxPoint x="440" y="375.16" as="sourcePoint" />
            <mxPoint x="560" y="375.16" as="targetPoint" />
          </mxGeometry>
        </mxCell>
        <mxCell id="A1xcLRBUTXrgSNpEkEmB-37" value="" style="endArrow=none;html=1;rounded=1;curved=0;fillColor=#f5f5f5;strokeColor=#666666;" parent="1" edge="1">
          <mxGeometry width="50" height="50" relative="1" as="geometry">
            <mxPoint x="627.5" y="375.16" as="sourcePoint" />
            <mxPoint x="747.5" y="375.16" as="targetPoint" />
          </mxGeometry>
        </mxCell>
        <mxCell id="A1xcLRBUTXrgSNpEkEmB-38" value="" style="endArrow=none;html=1;rounded=1;curved=0;fillColor=#e3c800;strokeColor=#B09500;" parent="1" edge="1">
          <mxGeometry width="50" height="50" relative="1" as="geometry">
            <mxPoint x="811" y="375.16" as="sourcePoint" />
            <mxPoint x="931" y="375.16" as="targetPoint" />
          </mxGeometry>
        </mxCell>
        <mxCell id="A1xcLRBUTXrgSNpEkEmB-39" value="&lt;font style=&quot;font-size: 11px;&quot;&gt;&lt;b&gt;Object Type: &lt;/b&gt;Tables&lt;/font&gt;&lt;div&gt;&lt;b&gt;&lt;font style=&quot;font-size: 11px;&quot;&gt;&lt;br&gt;&lt;/font&gt;&lt;/b&gt;&lt;/div&gt;&lt;div&gt;&lt;b&gt;&lt;font style=&quot;font-size: 11px;&quot;&gt;Load:&lt;/font&gt;&lt;/b&gt;&lt;/div&gt;&lt;div&gt;&lt;ul&gt;&lt;li&gt;&lt;font style=&quot;font-size: 11px;&quot;&gt;Batch Processing&lt;/font&gt;&lt;/li&gt;&lt;li style=&quot;&quot;&gt;&lt;font style=&quot;font-size: 11px;&quot;&gt;Full Load&lt;/font&gt;&lt;/li&gt;&lt;li&gt;&lt;font style=&quot;font-size: 11px;&quot;&gt;Truncate &amp;amp; Insert&lt;/font&gt;&lt;/li&gt;&lt;/ul&gt;&lt;div&gt;&lt;font style=&quot;font-size: 11px;&quot;&gt;No Transformations&lt;/font&gt;&lt;/div&gt;&lt;/div&gt;&lt;div&gt;&lt;font style=&quot;font-size: 11px;&quot;&gt;&lt;br&gt;&lt;/font&gt;&lt;/div&gt;&lt;div&gt;&lt;font style=&quot;font-size: 11px;&quot;&gt;&lt;b&gt;Data Model:&amp;nbsp;&lt;/b&gt;&amp;nbsp;None (as-is)&lt;/font&gt;&lt;/div&gt;" style="text;html=1;align=left;verticalAlign=middle;whiteSpace=wrap;rounded=0;" parent="1" vertex="1">
          <mxGeometry x="430" y="410" width="150" height="100" as="geometry" />
        </mxCell>
        <mxCell id="A1xcLRBUTXrgSNpEkEmB-42" value="&lt;font style=&quot;font-size: 11px;&quot;&gt;&lt;b&gt;Object Type: &lt;/b&gt;Tables&lt;/font&gt;&lt;div&gt;&lt;b&gt;&lt;font style=&quot;font-size: 11px;&quot;&gt;&lt;br&gt;&lt;/font&gt;&lt;/b&gt;&lt;/div&gt;&lt;div&gt;&lt;b&gt;&lt;font style=&quot;font-size: 11px;&quot;&gt;Load:&lt;/font&gt;&lt;/b&gt;&lt;/div&gt;&lt;div&gt;&lt;ul&gt;&lt;li&gt;&lt;font style=&quot;font-size: 11px;&quot;&gt;Batch Processing&lt;/font&gt;&lt;/li&gt;&lt;li style=&quot;&quot;&gt;&lt;font style=&quot;font-size: 11px;&quot;&gt;Full Load&lt;/font&gt;&lt;/li&gt;&lt;li&gt;&lt;font style=&quot;font-size: 11px;&quot;&gt;Truncate &amp;amp; Insert&lt;/font&gt;&lt;/li&gt;&lt;/ul&gt;&lt;div&gt;&lt;font style=&quot;font-size: 11px;&quot;&gt;&lt;b&gt;Transformations:&lt;/b&gt;&lt;/font&gt;&lt;/div&gt;&lt;/div&gt;&lt;div&gt;&lt;ul&gt;&lt;li&gt;&lt;span style=&quot;font-size: 11px;&quot;&gt;Data Cleaning&lt;/span&gt;&lt;/li&gt;&lt;li&gt;&lt;span style=&quot;font-size: 11px;&quot;&gt;Data Standardisation&lt;/span&gt;&lt;/li&gt;&lt;li&gt;&lt;span style=&quot;font-size: 11px;&quot;&gt;Data Normalisation&lt;/span&gt;&lt;/li&gt;&lt;li&gt;&lt;span style=&quot;font-size: 11px;&quot;&gt;Derived Columns&lt;/span&gt;&lt;/li&gt;&lt;/ul&gt;&lt;/div&gt;&lt;div&gt;&lt;font style=&quot;font-size: 11px;&quot;&gt;&lt;br&gt;&lt;/font&gt;&lt;/div&gt;&lt;div&gt;&lt;font style=&quot;font-size: 11px;&quot;&gt;&lt;b&gt;Data Model:&amp;nbsp;&lt;/b&gt;&amp;nbsp;None (as-is)&lt;/font&gt;&lt;/div&gt;" style="text;html=1;align=left;verticalAlign=middle;whiteSpace=wrap;rounded=0;" parent="1" vertex="1">
          <mxGeometry x="610" y="450" width="150" height="100" as="geometry" />
        </mxCell>
        <mxCell id="A1xcLRBUTXrgSNpEkEmB-43" value="&lt;div&gt;&lt;span style=&quot;font-size: 11px;&quot;&gt;&lt;b&gt;Object Type: &lt;/b&gt;Views&lt;/span&gt;&lt;/div&gt;&lt;div&gt;&lt;span style=&quot;font-size: 11px;&quot;&gt;&lt;br&gt;&lt;/span&gt;&lt;/div&gt;&lt;span style=&quot;font-size: 11px;&quot;&gt;No &lt;b&gt;Load&lt;/b&gt;&lt;/span&gt;&lt;div&gt;&lt;span style=&quot;font-size: 11px;&quot;&gt;&lt;b&gt;&lt;br&gt;&lt;/b&gt;&lt;/span&gt;&lt;div&gt;&lt;div&gt;&lt;font style=&quot;font-size: 11px;&quot;&gt;&lt;b&gt;Transformations&lt;/b&gt;:&lt;/font&gt;&lt;/div&gt;&lt;/div&gt;&lt;div&gt;&lt;ul&gt;&lt;li&gt;&lt;font style=&quot;font-size: 11px;&quot;&gt;Data Integration&lt;/font&gt;&lt;/li&gt;&lt;li&gt;&lt;font style=&quot;font-size: 11px;&quot;&gt;Aggregations&lt;/font&gt;&lt;/li&gt;&lt;li&gt;&lt;font style=&quot;font-size: 11px;&quot;&gt;Business Logics&lt;/font&gt;&lt;/li&gt;&lt;/ul&gt;&lt;/div&gt;&lt;div&gt;&lt;font style=&quot;font-size: 11px;&quot;&gt;&lt;br&gt;&lt;/font&gt;&lt;/div&gt;&lt;div&gt;&lt;font style=&quot;font-size: 11px;&quot;&gt;&lt;b&gt;Data Model:&lt;/b&gt;&lt;/font&gt;&lt;/div&gt;&lt;div&gt;&lt;ul&gt;&lt;li&gt;&lt;font style=&quot;font-size: 11px;&quot;&gt;Star Schema&lt;/font&gt;&lt;/li&gt;&lt;li&gt;&lt;font style=&quot;font-size: 11px;&quot;&gt;Flat Table&lt;/font&gt;&lt;/li&gt;&lt;li&gt;&lt;font style=&quot;font-size: 11px;&quot;&gt;Aggregated Table&lt;b&gt;&amp;nbsp;&lt;/b&gt;&lt;/font&gt;&lt;/li&gt;&lt;/ul&gt;&lt;/div&gt;&lt;/div&gt;" style="text;html=1;align=left;verticalAlign=middle;whiteSpace=wrap;rounded=0;" parent="1" vertex="1">
          <mxGeometry x="811" y="450" width="150" height="100" as="geometry" />
        </mxCell>
        <mxCell id="A1xcLRBUTXrgSNpEkEmB-44" value="" style="shape=flexArrow;endArrow=classic;html=1;rounded=0;entryX=0.036;entryY=0.4;entryDx=0;entryDy=0;entryPerimeter=0;fillColor=#dae8fc;strokeColor=#6c8ebf;" parent="1" edge="1">
          <mxGeometry width="50" height="50" relative="1" as="geometry">
            <mxPoint x="950" y="273.72" as="sourcePoint" />
            <mxPoint x="1013.1600000000001" y="273.72" as="targetPoint" />
          </mxGeometry>
        </mxCell>
        <mxCell id="A1xcLRBUTXrgSNpEkEmB-45" value="" style="image;aspect=fixed;html=1;points=[];align=center;fontSize=12;image=img/lib/azure2/analytics/Power_BI_Embedded.svg;" parent="1" vertex="1">
          <mxGeometry x="1039.5" y="218.64" width="41" height="54.67" as="geometry" />
        </mxCell>
        <mxCell id="A1xcLRBUTXrgSNpEkEmB-46" value="BI &amp;amp; Reporting" style="rounded=0;whiteSpace=wrap;html=1;fillColor=none;strokeColor=none;" parent="1" vertex="1">
          <mxGeometry x="1025" y="264.67" width="120" height="60" as="geometry" />
        </mxCell>
        <mxCell id="A1xcLRBUTXrgSNpEkEmB-48" value="Ad-Hoc SQL queries" style="rounded=0;whiteSpace=wrap;html=1;fillColor=none;strokeColor=none;" parent="1" vertex="1">
          <mxGeometry x="1025" y="438.82" width="120" height="60" as="geometry" />
        </mxCell>
        <mxCell id="A1xcLRBUTXrgSNpEkEmB-54" value="" style="shape=image;verticalLabelPosition=bottom;labelBackgroundColor=default;verticalAlign=top;aspect=fixed;imageAspect=0;image=https://upload.wikimedia.org/wikipedia/commons/thumb/2/29/Postgresql_elephant.svg/540px-Postgresql_elephant.svg.png;" parent="1" vertex="1">
          <mxGeometry x="1047.95" y="390" width="65.9" height="67.97" as="geometry" />
        </mxCell>
        <mxCell id="A1xcLRBUTXrgSNpEkEmB-55" value="" style="shape=image;verticalLabelPosition=bottom;labelBackgroundColor=default;verticalAlign=top;aspect=fixed;imageAspect=0;image=https://www.vectorlogo.zone/logos/postgresql/postgresql-ar21.svg;" parent="1" vertex="1">
          <mxGeometry x="400" y="45" width="150" height="75" as="geometry" />
        </mxCell>
        <mxCell id="Pn4QboPf3ZA0Pwuc9z-p-2" value="&lt;font style=&quot;font-size: 10px;&quot;&gt;WFM - Workforce Management database&lt;/font&gt;&lt;div&gt;&lt;br&gt;&lt;/div&gt;" style="text;html=1;align=left;verticalAlign=middle;whiteSpace=wrap;rounded=0;" parent="1" vertex="1">
          <mxGeometry x="217.69" y="530" width="130" height="30" as="geometry" />
        </mxCell>
        <mxCell id="Pn4QboPf3ZA0Pwuc9z-p-5" value="" style="shape=image;verticalLabelPosition=bottom;labelBackgroundColor=default;verticalAlign=top;aspect=fixed;imageAspect=0;image=data:image/png,iVBORw0KGgoAAAANSUhEUgAAAgAAAAIACAYAAAD0eNT6AAAQAElEQVR4AezdB3wUVdeA8TOhdxBExYaoiL03QEWsWFB8xY6on4ACKk2KgmJDQBJAmoCKiBUUBAnNQg0CIiIiFqogvdckJNn55i6iCClb5s5OefjtJJvZO/ee879LcnZ2ZjZJ+OdfgYYNC0n7WmdIm1r1pV3Np63vvaVdrc+kXc1p0rbWYmtZby3brGW3tZgstTBo6w2Ds9946I9jujao7N//vGSGgH4BCgD9xs6N0PrK06RN7YelXa23rOV7OXHdLsmR38SQsWIafcWQVmLK/8Q0rhGRs63lWGupYC2lrYUbAp4RKFe89Ok1KleZcULXhkd5JmgCRcBVAiIUAC6bkKjC6Vi7gvWq/l7rlfswa1knSUlLxTCHiynNrOUS6w9+yaj6ozECHhIoW6zUGacec8y0o7rWK+uhsAkVAdcIUAC4ZioiDKRVnfLhV/lta34pWeZG64/8J9aWj1jLcdbCDYFACZQtWvLcsypVnX5014bsxQrUzJNsvAJqewoApeD+xZA2V15nvcr/VAplWX/0rVf5YtxmhV3EWrghEGiBCiXKXFCjcqVJ8lS9YoGGIHkEohSgAIgSzNHmzeuUFnXwXttaf4iR9LU19j3WUtRauCGAwCEC5YuVqVWr+skTpGudwoes5i4CCOQqcGAlBcABB3d9bVunkvXefjcpkbVa1MF7Iqe5K0CiQcB9AkeVLFv3qkpnjRV19ov7wiMiBFwnQAHgpilpX6uMtKvdQSRrmfXeficrNHWEvvWNGwIIRCJQvkTpW668qsJn0pUDnIV/COQhcHA1BcBBiUR+b3pxkfCu/hxZJabZXUTKWQs3BBCIQaBSqfJ31qzQbHgMm7IJAoESoABI9HS3q329lC3xkxzY1X9UosNhfAT8IFCxdLmHavd7crAfciEHBOwV+Lc3CoB/LZy9p07na1tzsPWKf4q1nOns4IyGgP8FKpQs07Tmm82S/Z8pGSIQmwAFQGxu8W3VruYdUijrNxGjqYj1br/wDwEEdAhULFWuTe0BzV/V0Td9IuBFgUNjpgA4VEP3/dZXlpA2tftau/vHWEMdYy3cEEBAs0D5EqWeq9X/yec0D0P3CHhOgALAqSlre9VZkpS0QAzzaWtIw1q4IYCAAwKGaRgVSpR+9ar+LVo5MBxDIOBigf+GRgHwXw89P6lP45PQbKvzGtbCDQEEHBYwxDDKFS+ZXKtfsyccHprhEHCtAAWA3qkxpG3NV8SQL4RT+ywCbggkTsAwjKQKJcv1u2ZQi0aJi4KREUicwOEjUwAcLmLXz13PKirtar0vYnQWEUP4hwACCRew/iMWLl245Lu1+jW/N+HBEAACCRagANAxAeqKfrsrTBZTHtLRPX0igEDsAklJRuEKJUoNv3bwU7fG3gtbIuA1gSPjpQA40iS+Ner8/hyZbHVSx1q4IYCACwWstwOKlSpcYuRVfZtd58LwCAkBRwQoAOxk7nRZRSmUNdXq8kpr4YYAAi4WsN4OKFmudNkx1w5qWcvFYRIaArYI5NYJBUBuKrGse+rysrK/yERr0wushRsCCHhAwBCjTMkiJVKvGdD8Ug+ES4gI2CpAAWAHZ7sbS0mRwhOsrvglYiFwQ8BLAkmGUa5M8VITrh/c+lwvxU2sCEQukHtLCoDcXSJf21WSxNzzgRjCbsTI1WiJgKsErD0BlYoVKvzN1b2b87kcrpoZgtEpQAEQr+6u2r1FjDuFfwgg4GkBa0/A0WXLlvr61nc7VvN0IgSPwGECef1IAZCXTCTr29Zu/velfSNpTRsEEHC5gCFGFSOU8/Vtw58/3uWhEh4CcQtQAMRK2K7mlSKm9eo/1g7YDgEE3ChgGMYpkpM1/ZZhzx7rxviICYHoBPJuTQGQt03ejzxb51gxjc+tBkWthRsCCPhMwDDl1KQc4+uGb3c9ymepkQ4C/whQAPxDEfEdQ8ysd6zWx1kLNwQQ8KmAYcjZ6ca+aXcO61repymSVgAE8kuRAiA/ndwea1frGTHlltweYh0CCPhLwBA5Nzu0d0qj998o5a/MyAYBEQqAaJ4Fba86y/rj/3o0m9AWAQS8LWCIcenO7K2pXacOK+7tTIg+eAL5Z0wBkL/Pv4+Gz/cPDbFW8EvAQuCGQJAETDN0zfwVS1KbDh5cJEh5k6u/BSgAIp3fPTVbcrGfSLFoh4D/BKw9AXU3Fl05puvUroX9lx0Z+VGgoJwoAAoSUo8fOOr/VXWXBQEEgisQCoVuXbgy8wPTNPndGdyngW8y50kcyVSGstT7/mUiaUobBBDwt0COmXNvg/eeG2EVAYa/MyU7bwsUHD0FQEFGbWtfbDV52Fq4IYAAAmGBnFDOAw3f79yfIiDMwRePClAAFDhxpnr1j1OBTjRAIFgCmdlZzRsO75wSrKzJ1isCkcTJH7b8lNrWqm09fIO1cEMAAQSOEMgMZT1zz/tdXjniAVYg4AEBCoD8JskwOfAvPx8eQyDoAqYY6dmZzz/4wUudgk5B/m4SiCwWCoC8nNrWvFRM45q8HmY9AgggEBawioDd+/e+eu+ILm3CP/MFAY8IUADkNVGG0SGvh1iPAAIIHCpgmpKUnpXZ86GPXmp26HruI5AIgUjHpADITapV7Wpiyp3CPwQQQCBCAasIKLQ7I/3Nx0Z156yhCM1ollgBCoDc/AuZTazVhayFGwIIIBCxQMgMFd26e8eQxh+9fE/EG9EQAVsFIu+MAuBwq6511GU+Gx++mp8RQACBSASsIqDYzsz0YU1G9qgfSXvaIJAoAQqAw+V3Z6n/tMcdvpqfEUAAgUgFckI5JTfv3fFBk8/euD7SbWiHgB0C0fRBAXCk1oNHrmINAgggEJ2AVQSU2bJ722dPjHqjTnRb0hoBZwQoAA51bl9LXe+/3qGruI8AAgjEKpAdyim3ce+2z54ak3JZrH2wHQKRC0TXkgLgUK+Qcbv1Ywlr4YYAAgjYIpCdk1Nx7c4t455N7X2BLR3SCQI2CVAAHAppmur9/0PXcB8BBBCIWyArJ/uY5Zs3pXYYN+TsuDujAwTyEIh2NQXAQbGGDdVpfxywc9CD7wggYKtAVk5OlRXb14x/Zcqw023tmM4QiFGAAuAg3Mlr1Xt0FQ/+yHcEEEDAboGM7MyqizauSO0+c/hJdvdNf0EXiD5/CoCDZiGpe/Au3xFAAAFdAhn7M09fsHLZpH6zxlbRNQb9IhCJAAXAQSXDqHXwLt8RQAABnQLpWZlnzlq5IHVQ2ujKOseh7+AIxJIpBcABNcP6drm1cEMAAQQcEdi3P/2CacsXThg+92veenREnEEOF6AAUCLta1W3vh1lLdwQQAABxwT2ZWVcPGV52pgJS+eUdWxQBvKhQGwpUQAot2zh/FzhHwIIJEJgV/reqz6aN2X04k2LSydifMYMrgAFgJr7JONc9Y0FAQQQSITAzow913X/evSoNWvWcCGyREyAx8eMNXwKACVnhrg4h3JgQQCBhAnsTN9zc5e090eYplksYUEwcKAEKADC021UC3/jCwIIIJBAga17d/7v8VHdh1pFQNEEhsHQnhKIPVgKgAN2Jx/4xlcEEEAgsQKbdm9v9ORnbwywioAiiY2E0f0uQAHQ+kp19H85v080+SGAgHcE1u7a8njz0cnJVhFQ2DtRE2kiBOIZkwIgqfCx8QCyLQIIIKBD4K+dm1o+NSbldYoAHbr0qQQoAJJCXIRDPRNYEEDAXQKmGH/u2Ni25ZjeL1lFAL+r3TU7LokmvjB4UplGpfgI2RoBBBDQJGAVAWt2bOjYbtyA5ygCNBkHuFsKgJCUCfD8kzoCCLhcwDQlaemWNS8+lzroaasIUJctd3nEhOeUQLzjUAAkhTjnNt5nEdsjgIBWAVPMwr9s/PON51OHtqQI0EodqM4pAMwkTrUJ1FOeZBHwpkC4CNi04o0Xpgx9lCLAm3Nob9Tx90YBIEIBEP/ziB4QQMABgZAZKvbz2pX9un/7wX0ODMcQPhdI8nl+BadnmLynVrASLRBAwCUCOWZOybmrfxn66pRhDV0SEmEkQMCOISkA7FCkDwQQQMBBgZxQqNSCtUuHpkz76HYHh2UonwlQAPhsQkkHAQSCIZAVyi43+88l7/adMeq6YGRMlv8K2HOPAsAeR3pBAAEEHBfIzN5faebKhR/3mzmqjuODM6DnBSgAPD+FJIAAAkEWyMzOOnrmikUfDpsz4YogOwQpd7typQCwS5J+EEAAgQQJpGdnVpm8dM4nHy+ccGGCQmBYDwpQAHhw0ggZAQQQOFxg7/6Mk8ctnvfZyEXTzz38MX72k4B9uVAA2GdJTwgggEBCBfZk7qv2xaKpI1MXzq2e0EAY3BMCFACemCaCRAABBCIT2J25r8Ynv04eOXfDb6dEtgWtvCRgZ6wUAHZq0hcCCCDgAoEd+/ac33/qqM/mrV12ogvCIQSXClAAuHRiCAsBBBCIR2DHvt0XDZr56Se/bV5dJZ5+2NZNAvbGQgFgrye9IYAAAq4R2LJ3Z81eUz8csWH3hsquCYpAXCNAAeCaqSAQBBBAwH6Bjbu3131h0vsjdu3aVdH+3unRSQG7x6IAsFuU/hBAAAGXCazfteXG9lMGv2OaZnmXhUY4CRSgAEggPkMjgAACTgms3bn5jlZj3xxgFQHlnBqTcewUsL8vCgD7TekRAQQQcKXAiq1rH2g3vn9vqwgo48oACcpRAQoAR7kZDAEEEEiswB+b1jz67PiByVYRUDqxkTB6NAI62lIA6FClTwQQQMDFAr9v/vPx5ycOfdUqAkq6OExC0yxAAaAZmO4RQAAB1wmYYvy8YdnTL015twtFgOtmJ5eA9KyiANDjSq8IIICAuwWsImDB2t/bv/zVex2tIqC4u4MlOh0CFAA6VOkTAQQQ8ICAaUrSD2t+69Rz6oetrSKgmAdCDmSIupKmANAlS78IIICABwRMMQvPXrW4a5+Znz5pFQFFPRAyIdokQAFgEyTdIIAAAl4VCJmhotOWLezef/boZlYRUMSrefgzbn1ZUQDos6VnBBBAwDMCVhFQ7Jvf53cfMmdsY6sIKOyZwAk0ZgEKgJjp2BABBBDwl0COmVNy0u/zkkfMn3y/VQQU8ld23sxGZ9QUADp16RsBBBDwmEB2TnbZLxbP6Pfhgil3W0UAfyM8Nn/RhMvkRqNFWwQQQCAAAlmh7HJfLJ7Zf/Ti6XdQBCRywvWOTQGg15feEUAAAU8KZGbvr/TJgm8GTvpj7s1WEWB4MgmCzleAAiBfHh5EAAEEgiuQkZ157LC5qUO+XrbgRooA558HukekANAtTP8IIICAhwXSszKPf2fuuLdmLvvxaooAD09kLqFTAOSCwioEEEAAgX8F9mamVx00d9y7c1f/UuvftdzTK6C/dwoA/caMgAACCHheYE/mvmr9Zn0+dOGa3y/zfDIkEBagAAgz8AUBBBBAoCCBXRl7a6TMGjlk6ea1FxXUlsfjE3BiawoAJ5QZAwEEEPCJwPZ9nUUl6QAAEABJREFUu89/7ZthQ5dt23COT1IKbBoUAIGdehJHAAEEYhPYunfXRa9/NWzIlsxdNWLrga3yF3DmUQoAZ5wZBQEEEPCVwKY926/sPH7wgJ0ZO0/3VWIBSoYCIECTTaoIIICAnQJrd2yu2zF1yMD09PRT7Ow36H05lT8FgFPSjIMAAgj4UOCvHZuv7zDprb6maZ7kw/R8nRIFgK+nl+QQQAAB/QIrt62//dnxA3pYRcDx+kfz+wjO5UcB4Jw1IyGAAAK+Ffh90+r7nps45DWrCKji2yR9lhgFgM8mlHQQQACBRAksXr+8cedJQ1+2ioBjEhWD18d1Mn4KACe1GQsBBBDwucCi9csee+Wr4Z2tIqCyz1P1fHoUAJ6fQhJAAAEEXCRgivH9X0ta9Jz6YTurCKjoosg8EIqzIVIAOOvNaAgggID/BawiIG3VorYp0z9paxUBR/k/YW9mSAHgzXkjagQQQMDVAqYpSdOXL3y238xRLa0ioLyrg3VJcE6HQQHgtDjjIYAAAgERMMUs/M2yBc8PnfNlM6sIKBeQtD2TJgWAZ6aKQBFAAAHvCYTMUNHUX2e/9O73qY9bRUAZ72XgVMTOj0MB4Lw5IyKAAAKBErCKgGJfLk57+ZOF3zxsFQGlA5W8i5OlAHDx5BAaAggg4BeBHDOn5Mifvu029peZ91lFQEm/5GVXHonohwIgEeqMiQACCARQIDsnu+z730/qNX7J7HutIqBEAAlclTIFgKumg2AQQAABfwtkhbLLDZ8/sefXS39oYBUBxf2dbaTZJaYdBUBi3BkVAQQQCKxAZvb+SkO+G5s8e/Wi26wioFhgIRKcOAVAgieA4RFAAIEgCmRkZx7bd/pnfeat+bWeVQQUDaLBwZwT9Z0CIFHyjIsAAggEXCA9K/P43jM+7f3T2qU3WkVAkYBzOJ4+BYDj5AyIAAIIIHBQYG9metWe0z9KXrZtzbVWEVD44PrgfE9cphQAibNnZAQQQAABS2B3xr7qXScN67t658ZrrCKgkLWKmwMCFAAOIDMEAggggED+Arsy9tboMnFo8vo9O2pZRUBg/jblr6L3UZD1+tI7AggggECEAtv37T6/c+pbPben776SIiBCtDiaUQDEgcemCCCAAAL2Cmzeu/3y9uMH9tyVlX6pVQQY9vbutt4SGw8FQGL9GR0BBBBA4DCBjbu31ewwdkC3fVn7LqEIOAzHxh8pAGzEpCsEEEAAAXsE1u7aXLfjhCEvWr2d79ciwMotoTcKgITyMzgCCCCAQF4Cq7auv7XV2L4vWY+fZy3cbBagALAZlO4QQAABBOwTWLF1Xf0OqQM7WHsBzravVzf0lPgYKAASPwdEgAACCCCQj8CvG/+8v/Okt5+lCMgHKYaHKABiQGMTBBBAAAFnBRatW9r4hclD21hFQHVnR9Yzmht6pQBwwywQAwIIIIBAgQIL1y17tNs3w5+2ioDTCmxMgwIFKAAKJKIBAggggIArBEwx5q5e8mTKjJHNrCLgVFfEFFMQ7tiIAsAd80AUCCCAAAIRCJimJE1f/kObvrM+a2IVASdHsAlN8hCgAMgDhtUIIIAAAu4UUEXAt3/Mbzv4u7GPWUXASe6MMu+o3PIIBYBbZoI4EEAAAQQiFjDFLDzxtzkdh38/6UGrCDg+4g1p+I8ABcA/FNxBAAEEEPCSQMgMFR3zy/QXPlzwlSoCqngjdvdESQHgnrkgEgQQQACBKAVCoVDxz36a+uLni6Y1tPYEHBPl5oFuTgEQ6OkneQQQQMD7AjlmTsmPfvzqpYm/zrnLKgIquzkjN8VGAeCm2SAWBBBAAIGYBLJyssu9PW98tyl/zL3TKgIqxtRJwDaiAAjYhJMuAggg4FeBrJys8kPnfPnarBU/1beKgKPcl6e7IqIAcNd8EA0CCCCAQBwCmdlZld5M+/y17/9aUs8qAsrH0ZXvN6UA8P0UkyACCCAQLIGMrMzjek39pMePa5aqIqCcW7J3WxwUAG6bEeJBAAEEEIhbID0r8/ieMz587ffNq2+w9gSUibtDH3ZAAeDDSSUlBBBAAAGRvZnpp7z81bDX1uzYWNcqAkon1sR9o1MAuG9OiAgBBBBAwCaB3Rn7qj+XOvj1tbu31LGKgJI2deuLbigAfDGNJIEAAgggkJfAzsy9Zz4/YfArm/dtV0VAibza6Vzvxr4pANw4K8SEAAIIIGCrwLa9uy7o+OXgF3bu3XuVtSeguK2de7QzCgCPThxhI4AAAghEJ7B57/bL200Y8EJGdnYtqwgoFt3W8bR257YUAO6cF6JCAIF8BOatXiKTfp/LgkHUz4Hh8yfUqtDlxsYvTXspJ5+nWCAeogAIxDSTJAL+EsgO5UhWTjYLBjE9BzKy9jfqmjqlkVP/K9w6DgWAW2eGuBBAAAEE9AmYRuCvEkgBoO/pRc8IIIAAAoEXcC8ABYB754bIEEAAAQQQ0CZAAaCNlo4RQAABBIIu4Ob8KQDcPDvEhgACCCCAgCYBCgBNsHSLAAIIIBB0AXfnTwHg7vkhOgQQQAABBLQIUABoYaVTBBBAAIGgC7g9fwoAt88Q8SGAAAIIIKBBgAJAAypdIoAAAggEXcD9+VMAuH+OiBABBBBAAAHbBSgAbCelQwQQQACBoAt4IX8KAC/MEjEigAACCCBgswAFgM2gdIcAAgggEHQBb+RPAeCNeSJKBBBAAAEEbBWgALCVk84QQAABBIIu4JX8KQC8MlPEiQACCCCAgI0CFAA2YtIVAggggEDQBbyTPwWAd+aKSBFAAAEEELBNgALANko6QgABBBAIuoCX8qcA8NJsESsCCCCAAAI2CVAA2ARJNwgggAACQRfwVv4UAN6aL6JFAAEEEEDAFgEKAFsY6QQBBBBAIOgCXsufAsBrM0a8CCCAAAII2CBAAWADIl0ggAACCARdwHv5UwB4b86IGAEEEEAAgbgFKADiJqQDBBBAAIGgC3gxfwoAL84aMSOAAAIIIBCnAAVAnIBsjgACCCAQdAFv5k8B4M15I2oEEEAAAQTiEqAAiIuPjRFAAAEEgi7g1fwpALw6c8SNAAIIIIBAHAIUAHHgsSkCCCCAQNAFvJs/BYB3547IEUAAAQQQiFmAAiBmOjZEAAEEEAi6gJfzpwDw8uwROwIIIIAAAjEKUADECMdmCCCAAAJBF/B2/hQA3p4/okcAAQQQQCAmAQqAmNjYCAEEEEAg6AJez58CwOszSPwIIIAAAgjEIEABEAMamyCAAAIIBF3A+/lTAHh/DskAAQQQQACBqAUoAKImYwMEEEAAgaAL+CF/CgA/zCI5IIAAAgggEKUABUCUYDRHAAEEEAi6gD/ypwDwxzySBQIIIIAAAlEJUABExUVjBBBAAIGgC/glfwoAv8wkeSCAAAIIIBCFAAVAFFg0RQABBBAIuoB/8qcA8M9ckgkCCCCAAAIRC1AARExFQwQQQACBoAv4KX8KAD/NJrkggAACCCAQoQAFQIRQNEMAAQQQCLqAv/KnAPDXfJINAggggAACEQlQAETERCMEEEAAgaAL+C1/CgC/zSj5IIAAAgggEIEABUAESDRBAAEEEAi6gP/ypwDw35ySEQIIIIAAAgUKUAAUSEQDBBBAAIGgC/gxfwoAP84qOSGAAAIIIFCAAAVAAUA8jAACCCAQdAF/5k8B4M95JSsEEEAAAQTyFaAAyJeHBxFAAAEEgi7g1/wpAPw6s+SFAAIIIIBAPgIUAPng8BACCCCAQNAF/Js/BYB/55bMEEAAAQQQyFOAAiBPGh5AAAEEEAi6gJ/zpwDw8+ySGwIIIIAAAnkIUADkAcNqBBBAAIGgC/g7fwoAf88v2SGAAAIIIJCrAAVAriysRAABBBAIuoDf86cA8PsMkx8CCCCAAAK5CFAA5ILCKgQQQACBoAv4P38KAP/PMRkigAACCCBwhAAFwBEkrEAAAQQQCLpAEPKnAAjCLJMjAggggAAChwlQABwGwo8IIIAAAkEXCEb+FADBmGeyRAABBBBA4D8CFAD/4eAHBBBAAIGgCwQlfwqAoMw0eSKAAAIIIHCIAAXAIRjcRQABBBAIukBw8qcACM5ckykCCCCAAAL/CFAA/EPBHQQQQACBoAsEKX8KgCDNNrkigAACCCDwtwAFwN8QfEMAAQQQCLpAsPKnAAjWfJMtAggggAACYQEKgDADXxBAAAEEgi4QtPwpAII24+SLAAIIIICAJUABYCFwQwABBBAIukDw8qcACN6ckzECCCCAAAJCAcCTAAEEEEAg8AJBBKAACOKskzMCCCCAQOAFKAAC/xQAAAEEEAi6QDDzpwAI5ryTNQIIIIBAwAUoAAL+BCB9BBBAIOgCQc2fAiCoM0/eCCCAAAKBFqAACPT0kzwCCCAQdIHg5k8BENy5J3MEEEAAgQALUAAEePJJHQEEEAi6QJDzpwAI8uyTOwIIIIBAYAUoAAI79SSOAAIIBF0g2PlTAAR7/skeAQQQQCCgAhQAAZ140kYAAQSCLhD0/CkAgv4MIH8EEEAAgUAKUAAEctpJGgEEEAi6APlTAPAcQAABBBBAIIACFAABnHRSRgABBIIuQP4iFAA8CxBAAAEEEAigAAVAACedlBFAAIFgC5C9EqAAUAosCCCAAAIIBEyAAiBgE066CCCAQNAFyP+AAAXAAQe+IoAAAgggECgBCoBATTfJIoAAAkEXIP+DAhQAByX4jgACCCCAQIAEKAACNNmkigACCARdgPz/FaAA+NeCewgggAACCARGgAIgMFNNoggggEDQBcj/UAEKgEM1uI8AAggggEBABCgAAjLRpIkAAggEXYD8/ytAAfBfD35CAAEEEEAgEAIUAIGYZpJEAAEEgi5A/ocLUAAcLsLPCCCAAAIIBECAAiAAk0yKCCCAQNAFyP9IAQqAI01YgwACCCCAgO8FKAB8P8UkiAACCARdgPxzE6AAyE2FdQgggMBhAoWTCslxZStKtYpV5MxjqsrFJ5whFx1fPfyzWle+ROnDtuBHBNwtkOTu8IjOzQIlihSTCiXKaF2KFy7qGEHZ4qW05qKsCiVF919O5a+207UUKVTYMV+vDFSueGm5/vRLpF2d+2XE/V1k3jNDZe0LX0hmj6my7oWxsrzTSFny7Acyv9U78kPrd8M/q3XbX5kk6d2/lZXPjZLpzfvL4LvbS6ur7gn3VaZYSa+k78s4SSp3geh+G+XeB2sDKqBeAW19eYJse2WitmVmi4GSZOh/mp533Kmy7WV9eSij754eLIWMQlE9W1rUukvUtrqW606/OKp4/Nr4nGOrSZcbHpFZLQfJlpdT5atmfeSN21rIQxffJJeeeKZUKVspouehKtiqHnWcXF3tAml6RX3pfcfT4b5UcaAKhuTbW8q1p10khZKS/EpJXh4S4FnooclyW6izVi6SET9M1hrWJSfWCP8i1TmIYRjSr0Fr7b+Unx7TR/bnZOlMhb6jEFC77J+5qqEssF7F/9zufXn5prJqke0AABAASURBVMelVtVzRe3qj6KbiJoWSkoKv2XQ5pr75Nsn3pSNXb+Ud+/tJDWt8SLqgEZxCLBpXgIUAHnJsD4igfapA2VH+p6I2sba6LV6TaVSqXKxbl7gdvdfcH34FVuBDeNoMPrn6TLlj3lx9MCmdglULl1But3STP58/nPpc8czcqH1Pr5dfUfaT8WS5eTRS2+VNGuPw+J2I+TJmg1E7T2IdHvaIWCHAAWAHYoB7mPj7m3ywuS3tQocVbKsvH7LE1rGKF2shPS8rbmWvg92ui8rQ9qM63fwR74nSKBY4SLSqW4jWWG9R6++q2M+EhTKf4Y9+9hTZOBdbWX5cyPDxwxQCPyHJ+4f6CBvAQqAvG14JEKBgbNHy8J1SyNsHVuzxy67VS476azYNs5nq87XPyLHlzs6nxbxP9T92w/kz+0b4u+IHmIWUMc6/Gy90lav/EsVLR5zPzo3VMcZqGMGlrT/UBqcc7XOoegbgbAABUCYgS/xCOSEQtJidIqYphlPN/luqw4EHNCgTUQHYuXb0SEPVj/6RGl99T2HrLH/7vKta+WNqR/Z3zE9RiSg3s9Xe4+mNO0tp1c6IaJtEt3olKOOk9GPdJOJjyfLcWUrJjocj49P+PkJUADkp8NjEQvMXvWzvDd/QsTtY2l4ic0HBPa9o5UULVQkllAi3qb12DclI3t/xO1paJ+A+uM5o8UA6Vj3IVsLR/sizL+nm2tcLj+1GS63nVUz/4Y8ikCMAhQAMcKx2ZECHVPfku3pu498wMY1dh0QeMfZV4n6BWtjaEd0lfrrbPlySdoR61mhX+CCKqeHz9+/8uRz9A+mcYSjS5eXcY/2kJdu+j8xDEPjSP7smqzyF6AAyN+HR6MQ2LRnu3SZNDSKLaJvascBgeogK/Vea/SjR76FetXfynr1H/kWtLRLQF3EZ2aLgXJCucp2dZnQfgzDkBdueFQ+fOBFUQcyJjQYBveVAAWAr6Yz8ckMmv2FzFu9RGsg6oDAK04+O+YxOli7hNX7rDF3EMGGvaZ9LMu2/BVBS5rYKaBe8Y955HVRZ3fY2a8b+rr/wutl3GM9OF0w4smgYUECFAAFCfF4VAIhMyTPjO0r6ntUG0bRWB0Q2O/O1jG9r3tyhWOl/bUPRDFa9E1X79gor38zIvoN2SIuAXU1x0lNkn35x/8gzI3VL5ORD7+i/diVg+Px3d8CFAD+nt+EZDfnz19k2Pf6DwhscsXtUeeXUv8pKVlE72lg6px/de5/1MGxQcwC6hX/p41eFrec2x9zIhFsePtZtWRIw/YRtAx2E7IvWIACoGAjWsQg0GnCW7Jt364Ytox8k271mkk0VwhU7w3fde41kQ8QQ8uv/vhePl80LYYt2SQegbcbdpQalU+OpwtPbdv4knrSvGYDT8VMsO4ToABw35z4IqLNe3bI8xOHaM0lmgMC1afevXlnK63xqOv8P/1FH61j0PmRAvVqXCH3XnDdkQ/4fI06kFW97eHzNGNMj80iEaAAiESJNjEJDJkzzjUHBKoPfTnzmKox5RHpRn1mjJTfNv0ZaXPa2SCgruOg/hDa0JXnulC5D7+/s6ji1nPBE7ArBCgAXDEN/gxCHQj4lPWKWH3XlWEkBwSqC8J0uf4RXSGE+123a4u8+vXw8H2+OCfw4EU3yhlHn+TcgC4bSV3voEXNu1wWVeLDIYLIBCgAInOiVYwC6pTAd+aNj3HryDZTVwjM74DAHrc2135wWLsv+8vuzH2RBUwr2wTUnh3bOvNoR89f31j789ujNIRdgAAFQAFAPBy/QKfUwbJ13874O8qnh255HBBYq+q58pD1KjGfTeN+aMaKhfLJwm/i7ocOohNQ5/yfX+W06DbyYWt1ICyF0KETy/1IBSgAIpWiXcwC6o//cxMGx7x9JBvmdkBgoaQk6degtdZLqGaHcqTlmN5aPwgpkvyD2Kb+2bUdT1vt5Ulb9XP4TI9356WGv6sCcGmCL/r0xJV3ivrgI8dBGNDTAhQAnp4+7wT/9tzx8v2aX7UGrK4QeOhHBje5vL5ceHx1rWOqj0L+ef1yrWPQee4Ct555Ze4P2LxWfb5F8vRP5OLej0n5zjdL7f5Pyt3vd5b/G/l6+Ps1A1tK9e73SZWX75DGn7wqE3+b43hBWKVsJVHXB7A5dU92R9CRC1AARG5FyzgE1IGALUanaL9C4IAGbcJXCKxYspy8Wq9JHBEXvOnG3dvkxcnvFNyQFrYLlC1eSs45tprt/R7e4YC00XJqt3tEHeOxYO0f+T5/1+/aKu/PnyS3vN1OLuz9qHyxeObh3Wn9WR0QqXUAOvedAAWA76bUvQmpPQBD53ypNcBLTqwhTa+oH/7jr4oAnYN1nPCW7Ejfo3MI+s5D4Kxjqmp9a0cN23nSUOvtnZSYPuHyp3XLpMF7neSRT15z7ODQG6pfyimBomaOJVIBCoBIpWhni8BzEwfLlr07bekrr0663/qEqN3/eT1ux/rv/lwsw+dPtKMr+ohBQBUAMWwW8Sbq1b4dn+egniNX9mum/TmvEitWuKgE6WqIKmeW+AQoAOLzY+soBdTlgdVlgqPcLKrm5YqXlkJJ+p7aOaGQPMWBf1HNid2NK5Uqb3eX/+nvve8n5Lu7/z+NC/jhlw0rw28LqAMIC2ga08NrdmwStbfipFfvkqAfjxITYIA30vdbMsCopJ6/gDp6eu7qJfk3cvGjQ+eOkx/++t3FEfo/tDLFSmpNUu3Ct3MA9fbXo592s7NLmbpsQfggxGrdGsprXw+XTXu229o/nflfgALA/3PsugwPHBCYLOqVtOuCKyAgdUpj54lDC2jFw7oFShYppnUIHZ/mqD4k6sMFU+KKe09mugyaPUbO6dVI6r71dPg0xOxQTlx9+mdjMolWgAIgWjHa2yKgXkEPmTPWlr6c7OT5iUO0X9TIyXy8OlZ6VqbW0HVdXvjpL/rEdODo75tXi9r2+FfulOajk0W9raAVgM4DIUABEIhpdmeS6o+p+tRAd0Z3ZFTqwLC35+o9i+HIUVmTm8Ce/em5rbZtXYtad9nW16EdqWNgBqR9fuiqPO+rPWVfL50v9d/tIGf2fFD6zfpMdmXszbN90B8g/+gFKACiN2MLmwTUBVY6ThhkU296uzFNU1pYr7xyQiG9A9F7RAK6Dqg7OLi6zHCnuo0O/mjr976zRsm+rIw8+1RnyfSY+qGc+vq9csPgVvLlkjTHLyyUZ3A84CsBCgBfTaf3khn2/QRRp9S5PfL35k+QOX/+4vYwAxOfOvJdd7Kv1WsqPW9rLupjd+0cS+31Gr9k9hFdzl/zm6gDBU98pYF0TB0kq7atP6INK/ISYH0sAhQAsaixjW0CB15Zp7j6gEB1sZ+OqW/ZljMdxS/w68ZV8XdSQA+GYcizdR6QH9sMk0cvvVWKFS5SwBaRP/zF4hnhxpnZWfLBD5PlijebyqV9Hxd1+mFG9v7wY3xBQLcABYBuYfovUODHtX/IoO/GFNguUQ3U5X45xSpR+rmPu9J6daz+eOb+qL1r1UWH3r23k6x/cZwMbdhB1BX3ihcuGtcgE36d88+5+40+fkW8fFpsXBA2bUw3sQlQAMTmxlY2C3SZNNSV5zEvWr9c1Af+2Jwu3cUpkB3KkQVrnb0WQ4USZeTxy2+XKU17y7ZXJspXzfrIqzc3kQbnXC0nlq8cVUY7M/Zw7n5UYjTWIUABoEOVPqMWULvZO1jve0a9ocYN1NsT6op/6o+NxmHoOkaByb/Pi3HL+DcrUaSYXH/6JfL89Y1l9CPdZHXn0bLuhbEy9tHu4XU3Vr9M1BUp4x+JHgoWoEWsAhQAscqxne0C6rrp05cvtL3fWDv86MevZMYK98QTax5+3W7Sb3NcldpxZStK/bNrh/cKTG6aIltfniDzW70jXW98TC4+4QztH17kKgyC8YQABYAnpikYQapX3M+M7SNueMWtTjNrP35gMOA9muX3a36TpVv+cm30hZKSwn/4X7QKAFUIrOg0Ugbc1VauOfUCigEbZ42uYhegAIjdji01CKhrsLvhPfeXvxom63Zt0ZAhXdoloC6Uoy6La1d/uvupetRx0rxmA5n2ZH/5vcPH0uHaB6Vy6Qq6h6V/BPIUoADIk4YHEiXwwqR3ZOPubYkaXtQpZn1njkrY+AwcucCw71NF7a2JfAt3tDy90gnS/dYnZU2X0fJpo5fDxxMYhuGO4DwVBcHGI0ABEI8e22oRUEdIt09N3O73Nl/2k6ycbC250am9AjvS90jvGZ/a26mDvamLDN1zft3wGQWL2g6Xhy+5WQonFXIwAoYKsgAFQJBn38W5j/hhssxc+ZPjEX62aKpM+m2u4+MyYOwCydM/EXX53Nh7cMeW5xxbTYbf11l+6/CR3H/h9RwnEMG00CQ+AQqA+PzYWpOAOiCw5egURw8IVNdnbzuuv6aM6FaXgPqAnOcmDNbVveP9nlrxePnowa7hMwjUAYOOB8CAgRGgAAjMVHsvUXURnv4RfnKaHdl1+2aErN6x0Y6u6MNhgaFzx8mEX79zeFS9w110fHWZ+kQ/GXx3eyldrITewTzZO0HHK0ABEK8g22sVUJfhXb9rq9YxVOfLtvwlvaZ9pO6yeFSgyagesnbnZo9Gn3vYhmFI0yvqh/cGnHLUcbk3Yi0CMQpQAMQIx2bOCKRnZYo6KFD3aNNXLBSnri2vO5eg9q9O26z3djtRBwb6zeCMo0+SGS0GSI3KJ/sttZjzYcP4BSgA4jekB40CT9e+25Ffeo0vqSfqICyNqdC1AwI/r18u9d5uKxsSeBqprjRPKFdZpjfvL6dVOkHXEPQbMAEKgIBNuJfSVZdWfeGGRx0JWZ161a9Ba0fGYhC9AnP+/EUu6fN/vvyEPXXhoNGNX5NSRYvrRXR97wRohwAFgB2K9KFFoOetzaVs8VJa+s6t0zqnXij3XXB9bg+xzmMC6liAqwe0kF7TPhZ1RonHws833HOPO1Xevqdjvm14EIFIBCgAIlGijeMCtU85Tx686EbHx33j9uYcce24up4B9+dkybPjB8iNQ1rL8q1r9QySoF5VoaqWBA2f8GEJwB4BCgB7HOnFRoFCSUnSv0GbhFwIRb3P+vx1jW3Mhq4SLfD10vlybq+HRX2+g7rWQ6LjsWv8lPpPSbnipe3qjn4CKEABEMBJd3vKT1x5p5xf5bSEhdn66ntFXas9YQEwsO0C6mwSdUrpqd3ukTdnjZKM7P22j+F0h+oYmVduftzpYV0wHiHYJUABYJck/dgicHTp8vLKzU1s6SvWTooVLiJ972wV6+Zs52IBdXbAM1/0lZNevUuenzhE/tq5ycXRFhxasyvvkBPLVy64IS0QyEWAAiAXFFYlTqBbvWZSoUSZxAXw98j1alwh9c+u/fdPfPObwOY9O6TbN+/Lya/eLTcMbiWjfpoqOaGQ59JUHyak9lh5LvA4AmZT+wQoAOyzpKc4BS476Sx57LJb4+zFvs17139aihdpvxGCAAAQAElEQVQual+H9OQ6gZAZEnWMwD0jukj1HvdJj6kfyqY9210XZ34BNbm8vlQsWS6/JjyGQK4CFAC5srDSaYEkI0n6Wbvd1Xenx85rvGoVq8iz1z6Q18Os95nAiq3rpGPqIKny8h1SZ1DL8McMr9y23vVZqs8JaHTxTa6P054A6cVOAQoAOzXpK2YB9cpf7QGIuQNNG3as+5CcXOFYTb3TrRsF1FsB05cvlDbj+km1bg3lgpRHpMukoTJjxUJRpxa6MeY7zrnKjWERk8sFKABcPkFBCE+956/e+3djriWLFJfk21u6MTRickjgp3XL5NWvh8s1A1vKUV3qhS81rC4wtHjDCociKHgYdd2Mo0qWLbihx1sQvr0CFAD2etJbDALqqH919H8Mmzqyyf/OqyPXn36JI2MxiLsF9u7PkEm/zQ1fYEhdW+CMHvdLpwlvyfw1vyU0cHUp65vPuDyhMTC49wQoALw3Z76KWJ3v/8SVd7o+pzfvbCVFChV2fZwE6KzAH5vXSPdvP5BL+z4up71+ryRP/0S2p+92Noi/R7v85LP+vufXb+RltwAFgN2i9BexgGEY4Sv+FUpy/9PwzGOqivpkwoiTo6FrBc477lTpVLeRzGo5SG6ofqltcarLDbf7sr+c8HIDaTqqpyzb8pdtfUfS0VnHnBJJM9og8I+A+3/z/hMqd/wmoK71r9679Epe6pMJ1dXXvBIvcR4QUMdx3HZWTRn0v3ayuvNo+antcOl2SzOpVfVc0XHgqbrc8NC54+TsNxpJh9RBjl118Kxjqh5I2KdfSct+AQoA+03pMQIB9Sl/6tP+ImjqmiYq5h63NndNPASSt0DVo46T5jUbyITHe8mWl1Ply8d6inqr6cTDrpp3yQk18u4kzkfUGQM9p34oF/d+TFY5cDphlbKVpHyJ0nFGzeZBEqAACNJsuyhXr76afuiiG8OvHF1ESSiWgDoI7upqF0iPW5+Uxe1GyMrnRsmAu9qKuqJjiSLFrBa539ReAN3HdizZuEquG/yMIxcYOrpU+dwT9fxaEtAhQAGgQ5U+8xXw8vvphmFI/7vaSKEk/uvkO8kOPFipVDl56OKb5JOHXpJNL42X6c37S/trH5Szjz0l4tHV2Se3nnllxO1jbaguMtRyTEqsm0e8XZliJSNuS0ME+C3Gc8Bxgd71n/L0EfUXVDldml5xh+NuDCjhP+4drD/yXzXrI+teGCsj7u8i915wXVyfH/HYZbc5Qqs+b+C3TX9qHau0TwsArWgB7pwCIMCTn4jU7z7vWrlJ8/nKU5ct0P6e66s3NxH1CjQRhkEdU12RUe3e727t5lfXZbBr1716m6BG5ZMdYZ342xyt45Qtzh4ArcA+65wCwGcT6uZ01NHYyfX1XlVPHXjVfHRy+DKuOi3UVddeq9dM5xD0fZjAul1btHxinzp+oF+D1oeNpufHNTv0fvywaeqJO7G9MrouAQoAXbL0e4TAc9c1kpPKH3PEejtX9JkxUtRu1jGLZ4juV1uPX36bltPI7PTwU19ZOdmyfvcWLSmpPQr3nF9XS9+Hdqoue33oz3bf35Wx1+4u6c/HAhQAPp5cN6V2WqUTpF0dvZ+sp14hqmu2H8y71di+Wj+8RX1yYd87nhHDMA4OyXfNAr9u1Pce+sD/tRXdbwWceYzetxr27E/XPAPOd8+I+gQoAPTZ0vMhAn3ueFqKFS5yyBr77z775QDZnbnvn47VZVp7W3sE/lmh4c4VJ58tjS+pp6FnusxNIG3Vz7mttmVdxZLlZOLjveTYMkfZ0t/hnahz9G89s+bhq239ecPurbb2R2f+FqAA8Pf8uiK728+qJbp/8amPav144ddH5Pvq1+/JXzv1vu/a/ZYnpFxxLsByBL6GFbM1FgAqXHUBoYlNkuXEwy4YpB6Ld1HXvsjvmgTx9r8jfY+s3+W3AiBeFbbPT4ACID8dHotboHjhotLbevUfd0f5dJAdypGWY3qLmcsRUHsy06WdtWcgn83jfugY6xVj15sei7sfOihYIG3lz6LmtOCWsbdQp3kuaD0sfBGh2Hv575YNz79WWl11z39X2vzT75tX29wj3fldgALA7zOc4PyevfYBObXi8VqjGDh7tPy8fnmeY3y68BtRpwbm2cCGB1rW+l/4HHUbuqKLfATUdfbH/jIznxb2PFSpVDlJ/b83pO+dz4i6WFCsvarjRJ65qqF8/OBL2o8V+X7Nr7GG6drtCEyvAAWAXt9A967O2+5Y9yGtBht3b5MXJ79T4BhPfdFb1J6CAhvG2CB8KtmdzpxKFmOIuW6mzoFvekV9cety7WkXHRH3xz9+fcQ6HSsMw5CnazeUFZ1GyWv1moq61n6k4xQtVETuOvca+bHNMOlzxzOOXDlyyu/zIg2PdgiEBSgAwgx80SGQfHtLUef+6+j7YJ8dJ7wl6r3Pgz/n9f2XDSul36zP8nrYlvXqj5UTp5LZEuzfnag/cIPvbi9uXR679Na/I/3326Tf5zj6Ubuli5WQ5657WP7qMkbmt3pHXr7pcbnznKukZtVzpVrFKuFTW885tprUOfXCcMHw/v1dZEPXcfJ549dEffTwv5Hru6eufzF1+QJ9AySkZwbVLZCkewD6D6aAOq/6f+fV0Zq82uX5/vxJEY+h9hToPkhKXehI/cGIOCgaRi2QEwrJG9M+inq7eDcwDEMuPuEM6XLDIzLmkdclreUgWd5ppPzZ+XP5ud37MvXJfuG3DBpdfFNclyaOJc5xv8zSfmxELHGxjbsFKADcPT+ejE7t/tR9ZTX1R+DJz3tJyAxFbLQ7c590nDAo4vaxNDyhXGXpVLdRLJuyTRQCw+dPlDWar6oXRTgJbzpkzriEx2B3APSnX4ACQL9x4EZQBz3pvqDK23O/lB/++j1q2xE/TJY0zaeStb3mflEXPoo6ODaIWCAzO0taj3sz4vZ+bqiud/H10vl+TpHcNAlQAGiCDWq36iIqna9vrDX9bft2SedJQ2IaQ50q+NSY3lquKX8wIHXBowF3tTn4I981CXy+aJqMXzJbU+/e6fa5iYNzPQXWOxnkFinrnBCgAHBCOUBjJNd/SsoWL6U1Y/ULb8venTGP8ePaP2TwnLExbx/JhjdWv0zUBZAiaUub2AVajE6Wrftify7EPrI7tlR7s0b/PN0dwRCF5wQoADw3Ze4N+OpqF8j9F1yvNUC123/onC/jHqPLpKESTxERSQDqAkjqQkiRtKVNbAKrd2yUhz9+NapjQWIbyX1bqbdBWo5O8eWrf/dp+zMiCgB/zqvjWYXPg2/QWuvFTtTu+5ZjUmz5Za/eRnhuwmCtTuoCSO3q3K91DDoXmfDrd/LKV+8FjqJj6iBZuG5p4PImYfsEKADsswx0T0/WbKD9nOf35k+QOX/+YpvzO/PGizqV0LYOc+mokwMfgZzLsIFb9dJXw2Twd3rf1nETqjrtr++sUW4KycZY6MopAQoAp6R9PE7l0hXCF0fRmaK62E/H1LdsHUKdQthyTG9b9ijkFZi6EFJy/ZZ5Pcx6mwTU3qHmo5PFqasE2hR2TN2o9/3v/6Aru/5j0mOjQwUoAA7V4H5MAq/f8oSojzqNaeMIN1IX8dm0Z3uErSNvNm/1Ehn2/YTIN4ih5d3nXSvXnX5xDFuySTQCqqB7+ONXZOhc/54T/9O6ZXL7O+1FfSZCNDZeakuszglQADhn7cuRLjmxhjxyaT2tuanL+A76boy2MTqMH6T9SPJ+d7aWIoUKa8uBjg8IZIdypOmontJqbF/fvUJWH2hVZ1BL2Z6++0CyfEUgTgEKgDgBg7y5+qSzQXe1E/Vdl8PBXbtZOdm6hgj/8Vd7GLQNYHV85jFV5anad1v3uDkh0HfmKLnvgxdlV8ZeJ4bTPoa6gNXNQ9uKeitM+2AJHYDBnRSgAHBS22djPX75baL2AOhM66Mfv5IZKxbqHCLc91vffSG6j6jueuNjUX2iXDgwvsQsMPKnb+X8lEdEvc0TcycJ3lDt6ld7M9RbG+oDfxIcDsP7TIACwGcT6lQ6R5UsK6/Va6Z1OHXt/vbjB2od42DnOaGQqCsEqj0OB9fZ/b1MsZKijpewu1/6y1tg1bb1cs3AltLtm/dF516kvCOI/ZFZKxfJeb0ai9qbEXsv3tqSaJ0VoABw1ts3o71ycxOpVKqc1nzUud3rdm3ROsahnatfuB8smHLoKtvvq0+Kq1n1XNv7pcO8BTKy98vzE4fIRb0fk+/+XJx3Q5c8smbHJnngw65y9cAWsnzrWpdERRh+FKAA8OOsas7pwuOrS7Mr7tA6yq8bVyXklU+H1IFa3zc2DEP6N2gthZL4r6f1CZRL54s3rJBa/Z+Uu9/vLOrA0lyaJHSV+qjqDqmDpEaPB8KnM+rcG5XQRPMcnAecFuC3kNPiHh/PMAzp58AfsKe/6COJeM9T/RJWF5XROU2qgGpyeX2dQ9B3HgLqj6r6EKHzkhvLgx++JHNXL8mjpXOr1WdT/N/I16Xqa3dLz6kfcoqfc/SBH4kCIPBPgegA1C7sWpp3Yatf0In8eNN+sz6TJdYeiOhkomv9ar0mUrGk3rdQoosoWK3VNQPUAaZXvNlULrbeGhgyZ5z2z4Y4VHjltvXy+rcj5JxejcJvTbw7LzUhBe+hMSX6PuM7L0AB4Ly5Z0dU1/u/5/y6oj6QR9eiLs3bZly/hBqpg8VajknRmueqbRvkgYtuKDDPjXu2a41D1zza1e+q7RsKNIq3wYK1f0izz3rKsS/dHj5gsNe0j0U9D9XzIN6+1fZqr8OKretEnZWgxjm9+31SrVtDUZ9F4ca3IlTMLMEQoAAIxjzbkmV2KEdue6e9XNLn/7Qtl/VtIqt3bLQl3ng6URdd0Zmn6lvtaSgoxg9+mKzNWsXg9kV9amNBRnY9nhMKhU85fXb8AFHPw7LP3yg1+z0RLg7Uq3V1meHZq34OF2TqD/pfOzfJn1aBou6r3fiqaEj9dXb4SoQvTXlXmozqET7moHyXm+XU1++Re0e8IGpPw7Itf9kVso/6IZVECFAAJEKdMRFAwPUC6uwBddaA+qOtXq2rI/PVQYSqaFJ/0E985S5R79ur++oMA1U0qAJZXYmwq1UAvD33S1EFwy6fXIzI9RNGgFELUABETcYGCCCAAAJ2CtBXYgQoABLjzqgIIIAAAggkVIACIKH8DI4AAggEXYD8EyVAAZAoecZFAAEEEEAggQIUAAnEZ2gEEEAg6ALknzgBCoDE2TMyAggggAACCROgAEgYPQMjgAACQRcg/0QKUAAkUp+xEUAAAQQQSJAABUCC4BkWAQQQCLoA+SdWgAIgsf6MjgACCCCAQEIEKAASws6gCCCAQNAFyD/RAhQAiZ4BxkcAAQQQQCABAhQACUBnSAQQQCDoAuSfeAEKgMTPAREggAACCCDguAAFgOPkDIgAAggEXYD83SBAAeCGWSAGBBBAAAEEHBagAHAYnOEQQACBoAuQvzsEKADck/2SZAAADMFJREFUMQ9EgQACCCCAgKMCFACOcjMYAgggEHQB8neLAAWAW2aCOBBAAAEEEHBQgALAQWyGQgABBIIuQP7uEaAAcM9cEAkCCCCAAAKOCVAAOEbNQAgggEDQBcjfTQIUAG6aDWJBAAEEEEDAIQEKAIegGQYBBBAIugD5u0uAAsBd80E0CCCAAAIIOCJAAeAIM4MggAACQRcgf7cJUAC4bUaIBwEEEEAAAQcEKAAcQGYIBBBAIOgC5O8+AQoA980JESGAAAIIIKBdgAJAOzEDIIAAAkEXIH83ClAAuHFWiAkBBBBAAAHNAhQAmoHpHgEEEAi6APm7U4ACwJ3zQlQIIIAAAghoFaAA0MpL5wgggEDQBcjfrQIUAG6dGeJCAAEEEEBAowAFgEZcukYAAQSCLkD+7hWgAHDv3BAZAggggAAC2gQoALTR0jECCCAQdAHyd7MABYCbZ4fYEEAAAQQQ0CRAAaAJlm4RQACBoAuQv7sFKADcPT9EhwACCCCAgBYBCgAtrHSKAAIIBF2A/N0uQAHg9hkiPgQQQAABBDQIUABoQKVLBBBAIOgC5O9+AQoA988RESKAAAIIIGC7AAWA7aR0iAACCARdgPy9IEAB4IVZIkYEEEAAAQRsFqAAsBmU7hBAAIGgC5C/NwQoALwxT0SJAAIIIICArQIUALZy0hkCCCAQdAHy94oABYBXZoo4EUAAAQQQsFGAAsBGTLpCAAEEgi5A/t4RoADwzlwRKQIIIIAAArYJUADYRklHCCCAQNAFyN9LAhQAXpotYkUAAQQQQMAmAQoAmyDpBgEEEAi6APl7S4ACwFvzRbQIIIAAAgjYIkABYAsjnSCAAAJBFyB/rwlQAHhtxogXAQQQQAABGwQoAGxApAsEEEAg6ALk7z0BCgDvzRkRI4AAAgggELcABUDchHSAAAIIBF2A/L0oQAHgxVkjZgQQQAABBOIUoACIE5DNEUAAgaALkL83BSgAvDlvRI0AAggggEBcAhQAcfGxMQIIIBB0AfL3qgAFgFdnjrgRQAABBBCIQ4ACIA48NkUAAQSCLkD+3hWgAPDu3BE5AggggAACMQtQAIgZilmPDRFAAIFAC3g5eSPwv/spAEKS5eWnMLEjgAACCMQiYGbGspWftqEASDL2+2lCyQUBBBBwSsDT4xgUABQApmR4+klM8AgggAAC0QuYvPijADDMHdE/c9gCAQQQCLqA5/Pf5vkM4kyAAiBkbI3TkM0RQAABBLwmEAoF/nc/BYAZ2uK15y3xIoAAAokW8Pz4ZqHA/+6nAMgstsHzT2QSQAABBBCITqBwyY3RbeC/1hQAA6ftsaZ1i7VwQwABBBCISMDzjTZJryl7PZ9FnAlQAChAQ1YJ/xBAAAEEAiJg8DvfmmkKAAtBTFmuvrEggAACCBQs4IMWK3yQQ9wpUACECY3F4W98QQABBBAIgID5cwCSLDBFCgBFZJqL1DcWBBBAAIGCBHzwuGFQAFjTSAFgIUgohwJAObAggAACQRDIzqYAsOaZAsBCkD5z1AEh69VdFgQQQACBvAV88MjGv3/n+yCV+FKgAPjX77t/73IPAQQQQMCXAobM8mVeMSRFAXAQzTTTDt7lOwIIIIBAbgI+WBcyZ/sgC1tSoAA4yFhIvj14l+8IIIAAAn4VSPrGr5lFmxcFwEGxN2b/ZN1dZy3cEEAAAQRyEfDBqg2SMouDvv+eSAqAvyGsb6aIMVn4hwACCCDgUwFjopWY9bve+spNKAD+8yQwxv3nR35AAAEEEPhbwAffDPnSB1nYlgIFwKGU+0ur6nDnoau4jwACCCDgC4HdkpMzyReZ2JQEBcChkP0mZoqY7AU41IT7CCCAgIh4H8H8Qnp/l+79POzLgALgCEvzwyNWsQIBBBBAwOMCxsceT8D28CkADict891X1ip1ZUDrGzcEEEAAARGvGxh/yeoqU7yehd3xUwAcLtpVQtaqYdbCDQEEEEDADwKGvCOjRuX4IRU7c6AAyE2zkLxtrd5vLdwQQACBwAt4HCBbQknveDwHLeFTAOTG2jNNXRCI94tys2EdAggg4C2BTyVlxhpvhexMtBQAeTkbZi/rIdNauCGAAAIBFvB46klJKR7PQFv4FAB50faavVjEmCD8QwABBBDwqIAxWd6YucCjwWsPmwIgP+Ik4wXrYfYCWAjcEEAgmAKezto0u3o6fs3BUwDkBxyuHM2x+TXhMQQQQAABNwqY4yUlbY4bI3NLTBQABc5EoeetJtnWwg0BBBAImIBn080RI/y727MJOBE4BUBByskzl1hNBlkLNwQQQAABbwgMlV4z+djfAuaKAqAAoPDDoZB6H2lr+D5fEEAAgYAIeDTNHbI/SR2/5dHwnQubAiAS697fbRPTaB9JU9oggAACCCRUoJP0m7k5oRF4ZHAKgEgnKmWWujyw+pyASLegHQIIIOBhAU+GPkfKpA3xZOQJCJoCIHJ0U5LMJ63me62FGwIIIICAuwQyJCfnMeka/jwX4V/BAhQABRv92+KN2cvFMFv/u4J7CCCAgD8FvJeV2V76zPnVe3EnLmIKgGjte80eam0y0lq4IYAAAgi4QsCYLMmz+7siFA8FQQEQy2SFQuqtgFWxbMo2CCCAgPsFPBXhWsnOamxFbFoLtygEKACiwPqn6YGzAu4UU/b9s447CCCAAAJOC2RZA94nfedutL5zi1KAAiBKsH+ap8z6ScRs8c/P3EEAAQR8IuCZNEyjtSSnzfJMvC4LlAIgnglJmf2etXl3a+GGAAIIIOCogDlEUmYNcHRInw1GARDvhCanPSeGfBBvN2yPAAIIuEPAE1FMlDJF2QMb51RRAMQJaG1uSukiTazvX1sLNwQQQAABvQLfiVGqoXSdxoe0xelMARAnYHjzrtMypEzGHdb9GdbCDQEEEPCsgMsDXySh0G3SawoXZLNhoigAbEAMd9H1h31SOKO+iDFP+IcAAgggYLfAYjHMG0SdhWV3zwHtLymgeetJu8cPO8UoWdfq/Ftr4YYAAgh4TMCl4ZrmApEi10qv2ZtcGqEnw0ryZNRuDlrtmiqTcbsYMsnNYRIbAggg4AkBU2ZKkcy6kjxtiyfi9VCQFAA6Jku9HVC6yO1W129ZCzcEEEDAEwKuC9KQz8UM3SRq76rrgvN+QBQAuuaw67RsSU5Tlwx+3hqCS1RaCNwQQACBiAVMs4f0SmtoveefHvE2NIxKgAIgKq4YGiendRNTbrO23G4t3BBAAAGXCrgmLPUH/xFJmd3RiogXTxaCrhsFgC7ZQ/tNSZsgSYUuFzF+Fv4hgAACCOQl8IeEQpdbe0+H59WA9fYJUADYZ5l/T2/MWCplCl8mareWSCj/xjyKAAIIOCuQ+NHMEZJe5GJrlz8vlByaDAoAh6DDw6gLBh3YraXeElgXXscXBBBAINgCW8Q07pHk2Q/LwGl7gk3hbPYUAM56HxgtOW2iFM44y3rSv2mtYG+AhcANAQQSKZCgsQ0ZJfuTzpKUWaMSFEGgh6UASNT0q9NaUmY9I2Jea4Xwk7VwQwABBIIi8LtI6GbplXaP9Ju5OShJuy1PCoBEz0jy7BmyusrFYsoTYgj/ERI9H4yPQAAFHEx5hzVWG9mdca4kfzfZus8tgQIUAAnE/2foUaNyJCVtsOwrUk0MQ536wimD/+BwBwEEfCCwV0zjTTHMMyQ5rbcM+SHLBzl5PgUKADdNoToAptesHlLEONUqBF6yQttiLdwQQAABjQJau94ZPvNpf9Ipot7y5Fr+WrGj7ZwCIFoxJ9p3n7Vdes3qKmUyThYxWojIH9bCDQEEEPCKwCrrD39bKSQnhi/ow/v8rpw3CgBXTsvfQanPFEieNdDaZVbD2iNwrZjykfVIhrVwQwABBGwRsLGT/SLGZ+GD+8qknWr94U+Rnmm7hX+uFaAAcO3U/Ccw09ojME1S0h609gpUFHXOrJjjrRbWfzjrKzcEEEAgMQI5YkqaiNHKen//REme1TB8cF9XLnYmHvhHAeCBSfpPiGqvgDpnNnn27VI4o7K1m+1u6/G3rWWNtXBDAAEEohCIqel6a6v3rD/890koVNl6YVLb+sPfV3h/32Lx1o0CwFvz9d9ow9cSmP25JKc1sZaTJCfnFKsgaGS9XTDIajjXWvZaCzcEEEAgNgFT9lkbfi9iDhHTaCxJ5mnW75oq1vKo9Yf/U+n93TbrcW4eFaAA8OjE5Rp2nzmrrPfdPrDeLmhu/Qe9QsqklbUq9NOtXXO3iSFPiWGkWNuNtJZpcuCDidTliNUph7uEfwggECQB9X9+u5Ww9TvAUNfenyaGjJLw7wjzaeuP/e2SVKi6lE0rI8lpl0ny7GaSMut9eWP2cmsbbj4R+H8AAAD//4hpA1MAAAAGSURBVAMAh975CxNXfqoAAAAASUVORK5CYII=;" parent="1" vertex="1">
          <mxGeometry x="1085" y="215.97" width="60" height="60" as="geometry" />
        </mxCell>
      </root>
    </mxGraphModel>
  </diagram>
</mxfile>
